<svg width="760" height="180" viewBox="0 0 760 180" fill="none" xmlns="http://www.w3.org/2000/svg">
  <defs>
    <linearGradient id="logoAccent" x1="0" y1="0" x2="1" y2="1">
      <stop stop-color="#34D399"/>
      <stop offset="1" stop-color="#14B8A6"/>
    </linearGradient>
  </defs>
  <rect x="12" y="12" width="156" height="156" rx="34" fill="#0F1319" stroke="rgba(255,255,255,0.1)"/>
  <path d="M52 52H87.5C107.151 52 121 63.879 121 81.328C121 93.782 114.126 103.417 102.92 107.899L122.5 132H101.47L85.338 112.02H74V132H52V52ZM74 69.09V94.792H85.895C96.962 94.792 100.944 89.892 100.944 82.079C100.944 74.266 96.962 69.09 85.895 69.09H74Z" fill="white"/>
  <path d="M127 52H149V82H167V100H149V132H127V52Z" fill="url(#logoAccent)"/>
  <path d="M490.154 112V53.8182H528.836C536.245 53.8182 542.539 55.1402 547.716 57.7841C552.894 60.428 556.84 64.1269 559.555 68.8807C562.271 73.5966 563.629 79.0928 563.629 85.3693C563.629 91.6837 562.252 97.142 559.498 101.744C556.783 106.347 552.742 109.894 547.375 112.386C542.046 114.841 535.447 116.068 527.58 116.068H502.256V102.75H524.896C529.921 102.75 534.068 102.069 537.338 100.708C540.608 99.3097 543.044 97.2661 544.645 94.5767C546.285 91.8494 547.105 88.7803 547.105 85.3693C547.105 81.9205 546.285 78.7945 544.645 75.9915C543.044 73.1884 540.589 71.0691 537.281 69.6335C534.011 68.1601 529.845 67.4233 524.783 67.4233H506.764V112H490.154Z" fill="white"/>
  <path d="M575.584 112V53.8182H614.266C621.674 53.8182 627.968 55.1402 633.146 57.7841C638.323 60.428 642.27 64.1269 644.985 68.8807C647.7 73.5966 649.058 79.0928 649.058 85.3693C649.058 91.6837 647.681 97.142 644.928 101.744C642.212 106.347 638.171 109.894 632.804 112.386C627.475 114.841 620.877 116.068 613.01 116.068H587.685V102.75H610.326C615.35 102.75 619.498 102.069 622.768 100.708C626.038 99.3097 628.473 97.2661 630.074 94.5767C631.714 91.8494 632.534 88.7803 632.534 85.3693C632.534 81.9205 631.714 78.7945 630.074 75.9915C628.473 73.1884 626.019 71.0691 622.711 69.6335C619.441 68.1601 615.274 67.4233 610.212 67.4233H592.194V112H575.584ZM636.537 85.483L651.041 112H632.69L618.612 85.483H636.537Z" fill="white"/>
  <path d="M244.5 112V53.8182H283.182C290.59 53.8182 296.885 55.1402 302.062 57.7841C307.239 60.428 311.186 64.1269 313.901 68.8807C316.617 73.5966 317.975 79.0928 317.975 85.3693C317.975 91.6837 316.598 97.142 313.844 101.744C311.129 106.347 307.088 109.894 301.721 112.386C296.392 114.841 289.794 116.068 281.927 116.068H256.602V102.75H279.243C284.267 102.75 288.415 102.069 291.685 100.708C294.955 99.3097 297.39 97.2661 298.991 94.5767C300.631 91.8494 301.451 88.7803 301.451 85.3693C301.451 81.9205 300.631 78.7945 298.991 75.9915C297.39 73.1884 294.936 71.0691 291.628 69.6335C288.358 68.1601 284.191 67.4233 279.129 67.4233H261.111V112H244.5Z" fill="white"/>
  <path d="M330.316 112V53.8182H370.475C377.732 53.8182 383.645 54.875 388.214 56.9886C392.821 59.1023 396.217 61.9915 398.402 65.6562C400.629 69.3209 401.742 73.483 401.742 78.142C401.742 81.7689 400.951 84.9886 399.371 87.8011C397.79 90.5758 395.625 92.8788 392.878 94.7102C390.133 96.5038 386.994 97.7784 383.463 98.5341V99.1016C387.336 99.2907 390.981 100.414 394.397 102.472C397.853 104.51 400.647 107.35 402.781 110.994C404.915 114.618 405.982 118.864 405.982 123.733C405.982 128.6 404.811 132.961 402.469 136.815C400.158 140.648 396.574 143.68 391.717 145.909C386.861 148.117 380.642 149.222 373.061 149.222H330.316V112ZM346.925 138.818H370.219C378.047 138.818 383.64 137.344 386.997 134.395C390.381 131.422 392.073 127.692 392.073 123.193C392.073 119.812 391.224 116.785 389.527 114.111C387.829 111.437 385.412 109.33 382.275 107.79C379.141 106.23 375.418 105.449 371.106 105.449H346.925V138.818ZM346.925 93.1875H368.741C372.357 93.1875 375.605 92.5076 378.486 91.1477C381.406 89.7879 383.709 87.8854 385.395 85.4403C387.08 82.9953 387.923 80.1212 387.923 76.8182C387.923 72.4318 386.366 68.7784 383.253 65.858C380.139 62.9375 375.509 61.4773 369.361 61.4773H346.925V93.1875Z" fill="white" opacity="0"/>
  <text x="208" y="112" fill="white" font-family="Outfit, Geist, Arial, sans-serif" font-size="72" font-weight="700" letter-spacing="-1.8">
    Recipe<tspan fill="url(#logoAccent)">Hub</tspan>
  </text>
</svg>
